<?xml version="1.0" standalone="no"?>
<!DOCTYPE svg PUBLIC "-//W3C//DTD SVG 20010904//EN"
 "http://www.w3.org/TR/2001/REC-SVG-20010904/DTD/svg10.dtd">
<svg version="1.0" xmlns="http://www.w3.org/2000/svg"
 width="512.000000pt" height="512.000000pt" viewBox="0 0 512.000000 512.000000"
 preserveAspectRatio="xMidYMid meet">

<g transform="translate(0.000000,512.000000) scale(0.100000,-0.100000)"
 stroke="none">
<path d="M2510 4578 c-42 -9 -81 -46 -679 -643 l-634 -633 294 -1 294 -1 387
387 388 388 388 -388 387 -387 293 2 292 3 -624 625 c-343 344 -637 630 -653
636 -46 18 -85 22 -133 12z"/>
<path d="M580 2664 c0 -1 32 -163 70 -360 39 -198 105 -532 146 -744 41 -212
86 -441 100 -510 13 -69 29 -140 35 -158 15 -47 66 -102 114 -123 38 -18 110
-19 1513 -19 1459 0 1473 0 1515 20 23 12 57 40 76 65 32 44 36 59 207 912 96
478 176 878 179 890 l5 23 -1980 2 c-1089 2 -1980 2 -1980 2z m2910 -378 l34
-37 -542 -542 -542 -542 -317 317 -318 318 121 121 120 120 200 -201 199 -201
419 420 420 420 85 -79 c47 -43 102 -94 121 -114z"/>
</g>
</svg>
