<?xml version="1.0" encoding="UTF-8" standalone="no"?>
<svg
   xmlns:dc="http://purl.org/dc/elements/1.1/"
   xmlns:cc="http://creativecommons.org/ns#"
   xmlns:rdf="http://www.w3.org/1999/02/22-rdf-syntax-ns#"
   xmlns:svg="http://www.w3.org/2000/svg"
   xmlns="http://www.w3.org/2000/svg"
   id="svg10"
   preserveAspectRatio="xMidYMid meet"
   viewBox="0 0 375.000000 339.000000"
   height="339.000000pt"
   width="375.000000pt"
   version="1.0">
  <metadata
     id="metadata16">
    <rdf:RDF>
      <cc:Work
         rdf:about="">
        <dc:format>image/svg+xml</dc:format>
        <dc:type
           rdf:resource="http://purl.org/dc/dcmitype/StillImage" />
      </cc:Work>
    </rdf:RDF>
  </metadata>
  <defs
     id="defs14" />
  <g
     id="g8"
     stroke="none"
     transform="translate(0.000000,339.000000) scale(0.100000,-0.100000)">
    <path
       id="path2"
       d="M2020 3091 c-64 -21 -601 -297 -648 -334 -90 -69 -161 -171 -188 -269 -8 -29 -17 -95 -21 -147 -5 -81 -9 -94 -26 -99 -10 -3 -55 -22 -99 -43 -137 -67 -238 -194 -274 -344 -24 -105 -15 -258 21 -348 15 -38 25 -70 23 -71 -1 -2 -34 -11 -72 -20 -162 -40 -291 -149 -358 -305 -32 -74 -33 -79 -33 -221 0 -142 1 -147 32 -220 62 -143 171 -244 317 -296 l81 -29 1185 0 1185 0 72 27 c87 32 130 60 205 134 60 60 119 164 137 244 13 58 14 222 0 279 -41 181 -204 345 -385 387 -41 10 -74 21 -74 25 0 3 9 26 19 50 50 113 52 323 4 438 -60 142 -191 262 -336 306 l-37 11 -5 94 c-5 113 -31 203 -81 279 -74 111 -175 185 -307 226 -69 21 -71 22 -73 56 -4 49 -17 79 -49 118 -50 58 -152 93 -215 72z m-379 -1227 c293 -87 314 -492 32 -621 -49 -23 -65 -25 -146 -21 -100 5 -132 16 -204 75 -27 21 -54 58 -75 101 -30 60 -33 75 -33 152 0 100 23 161 83 223 94 97 214 129 343 91z m776 0 c71 -24 131 -72 173 -136 109 -168 50 -383 -132 -480 -37 -20 -58 -23 -148 -23 -84 0 -112 4 -140 19 -72 38 -119 86 -152 154 -29 58 -33 76 -33 147 0 55 6 96 19 130 21 54 93 138 141 163 84 43 190 54 272 26z" />
    <path
       id="path4"
       d="M1510 1653 c-8 -3 -27 -17 -42 -31 -23 -21 -28 -34 -28 -73 0 -66 29 -99 93 -106 43 -5 49 -3 82 30 40 40 47 89 18 134 -25 38 -84 60 -123 46z" />
    <path
       id="path6"
       d="M2263 1644 c-99 -49 -62 -204 49 -204 52 0 108 51 108 99 0 47 -27 91 -65 107 -43 18 -52 17 -92 -2z" />
  </g>
</svg>
