<?xml version="1.0" standalone="no"?>
<!DOCTYPE svg PUBLIC "-//W3C//DTD SVG 20010904//EN"
 "http://www.w3.org/TR/2001/REC-SVG-20010904/DTD/svg10.dtd">
<svg version="1.0" xmlns="http://www.w3.org/2000/svg"
 width="206.000000pt" height="245.000000pt" viewBox="0 0 206.000000 245.000000"
 preserveAspectRatio="xMidYMid meet">

<g transform="translate(0.000000,245.000000) scale(0.100000,-0.100000)"
fill="#000000" stroke="none">
<path d="M831 2409 c-201 -42 -362 -129 -507 -274 -144 -143 -218 -273 -271
-474 -35 -131 -37 -334 -5 -462 82 -335 298 -587 612 -716 41 -17 93 -35 115
-39 l39 -7 -27 32 c-31 38 -42 71 -33 106 10 38 73 102 113 116 75 25 192 -6
275 -72 14 -12 31 -19 36 -15 6 3 18 30 27 59 48 146 139 253 240 282 130 38
240 -18 252 -128 8 -68 -2 -94 -64 -158 -46 -48 -52 -59 -35 -59 48 0 190 141
282 282 105 159 153 330 153 543 0 117 -4 155 -26 236 -32 123 -76 224 -134
313 -63 97 -210 241 -307 301 -219 136 -490 185 -735 134z m561 -334 c-4 -43
-6 -45 -40 -50 -85 -14 -99 -18 -145 -43 -46 -25 -105 -81 -137 -130 -15 -24
-16 -24 -53 -6 -20 10 -37 23 -37 29 0 22 58 101 100 138 74 63 179 104 270
106 l45 1 -3 -45z m42 -236 c48 -32 76 -86 76 -143 0 -54 -16 -89 -57 -128
-55 -52 -119 -61 -190 -27 -168 81 -102 338 84 326 34 -2 64 -12 87 -28z
m-665 -250 c15 -43 14 -59 -4 -59 -12 0 -15 -13 -15 -57 0 -122 -99 -203 -210
-173 -42 11 -101 60 -125 103 -8 15 -15 17 -37 8 -27 -10 -28 -9 -41 37 -10
34 -11 48 -3 51 33 13 394 119 408 120 10 1 20 -11 27 -30z m655 -374 l50 -45
-48 -46 c-128 -123 -309 -194 -489 -194 -87 0 -90 4 -80 84 l8 67 95 4 c149 5
262 50 355 143 17 16 37 30 45 30 8 1 37 -19 64 -43z"/>
<path d="M1465 857 c-79 -32 -121 -86 -169 -219 -30 -80 -52 -110 -100 -128
-35 -13 -60 -6 -107 31 -49 39 -117 69 -155 69 -33 0 -84 -33 -84 -54 0 -6 29
-41 65 -76 90 -88 120 -140 148 -248 42 -160 100 -207 252 -207 78 1 97 4 143
28 73 38 128 97 165 175 27 57 32 78 32 144 0 70 -2 80 -26 104 -15 15 -40 27
-57 29 -20 1 -40 13 -57 33 -15 18 -33 32 -40 32 -45 0 -21 45 72 138 67 67
76 93 45 132 -21 26 -84 35 -127 17z"/>
</g>
</svg>
