<?xml version="1.0" standalone="no"?>
<!DOCTYPE svg PUBLIC "-//W3C//DTD SVG 20010904//EN"
 "http://www.w3.org/TR/2001/REC-SVG-20010904/DTD/svg10.dtd">
<svg version="1.0" xmlns="http://www.w3.org/2000/svg"
 width="500.000000pt" height="500.000000pt" viewBox="0 0 500.000000 500.000000"
 preserveAspectRatio="xMidYMid meet">

<g transform="translate(0.000000,500.000000) scale(0.100000,-0.100000)"
fill="#000000" stroke="none">
<path d="M2915 3603 c-33 -8 -66 -20 -73 -26 -31 -25 -1 -31 164 -32 186 -1
203 -5 372 -77 73 -31 96 -38 105 -28 17 17 -51 74 -138 115 -130 62 -303 81
-430 48z"/>
<path d="M1839 3341 c-120 -22 -268 -106 -347 -196 -36 -41 -46 -75 -22 -75 4
0 40 25 81 55 82 62 230 137 299 153 25 6 75 14 112 17 62 7 93 25 68 40 -17
11 -143 14 -191 6z"/>
<path d="M2914 2593 c33 -65 110 -123 163 -123 l31 0 -61 58 c-74 70 -105 92
-129 92 -17 0 -17 -2 -4 -27z"/>
<path d="M2035 2586 c-16 -8 -42 -25 -58 -39 -15 -14 -44 -29 -65 -33 -84 -15
-97 -44 -19 -44 62 0 118 27 161 77 34 40 25 58 -19 39z"/>
<path d="M2345 2244 c-16 -2 -93 -11 -170 -20 -217 -25 -445 -89 -635 -177
-83 -39 -120 -71 -103 -88 14 -14 79 -28 132 -29 l43 0 -6 43 c-9 58 -2 73 46
92 82 32 297 86 443 110 363 61 814 34 1123 -66 153 -50 179 -64 193 -106 14
-44 -1 -70 -49 -80 -20 -4 -238 -8 -484 -7 l-447 1 72 -44 c40 -25 90 -57 112
-73 22 -15 44 -25 50 -22 5 4 21 5 35 3 55 -7 104 -48 121 -100 16 -51 34 -68
114 -109 66 -35 75 -36 165 -36 88 0 101 3 173 37 141 66 257 208 287 353 17
83 10 100 -63 134 -152 71 -354 130 -557 162 -119 18 -513 33 -595 22z"/>
<path d="M1904 1922 c-25 -16 -83 -176 -84 -230 0 -25 18 -2 25 31 4 17 25 70
46 116 21 46 39 85 39 87 0 6 -14 4 -26 -4z"/>
<path d="M2136 1879 c-18 -44 -35 -210 -20 -196 4 4 16 47 26 95 10 48 27 99
38 115 l21 27 -25 0 c-19 0 -27 -9 -40 -41z"/>
</g>
</svg>
