<?xml version="1.0" encoding="UTF-8"?>
<svg width="159px" height="48px" viewBox="0 0 159 48" version="1.1" xmlns="http://www.w3.org/2000/svg" xmlns:xlink="http://www.w3.org/1999/xlink">
    <title>Group 36</title>
    <g id="Homepage" stroke="none" stroke-width="1" fill="none" fill-rule="evenodd">
        <g id="Group-36" transform="translate(0.179698, 0.500000)">
            <path d="M32.5503899,27.6397178 C32.5558861,28.9456821 32.2938308,30.2389419 31.7803025,31.4397178 C31.2890097,32.5946353 30.5793562,33.643836 29.6903025,34.5297178 C28.7947991,35.4138512 27.7394022,36.1197115 26.5803025,36.6097178 C25.3745562,37.1298317 24.0733863,37.3921094 22.7603025,37.3797178 C21.5683561,37.3834858 20.3857015,37.169998 19.2703025,36.7497178 C18.1645527,36.3192332 17.1475781,35.688709 16.2703025,34.8897178 C15.3971691,35.6941771 14.3791081,36.325375 13.2703025,36.7497178 C12.1484979,37.1719604 10.9589272,37.3854731 9.76030247,37.3797178 C8.45366302,37.3922764 7.15898496,37.1299337 5.96030247,36.6097178 C4.80418018,36.1196799 3.7520691,35.4137473 2.86030247,34.5297178 C1.96808933,33.6464529 1.25799031,32.5965936 0.770302471,31.4397178 C0.252073162,30.2404113 -0.0101833296,28.9461585 -1.03028697e-13,27.6397178 L-1.03028697e-13,11.3297178 L6.53030247,11.3297178 L6.53030247,27.6397178 C6.53719653,28.5075247 6.89845856,29.3348147 7.53030247,29.9297178 C7.81667365,30.2212773 8.15608522,30.4554713 8.53030247,30.6197178 C8.92515121,30.7887453 9.35081611,30.8738783 9.78030247,30.8697178 C10.2162458,30.8737657 10.6484187,30.7886923 11.0503025,30.6197178 C11.4221453,30.4512436 11.7608216,30.217557 12.0503025,29.9297178 C12.3498079,29.64578 12.5909874,29.3060906 12.7603025,28.9297178 C12.9301306,28.531605 13.0152681,28.1025118 13.0103025,27.6697178 L13.0103025,11.3297178 L19.5203025,11.3297178 L19.5203025,27.6397178 C19.5184932,28.0732196 19.6070422,28.5023414 19.7803025,28.8997178 C19.9564495,29.2721349 20.196784,29.6106343 20.4903025,29.8997178 C20.7785028,30.1890944 21.1174768,30.4229865 21.4903025,30.5897178 C21.8848879,30.7595922 22.3107334,30.8447613 22.7403025,30.8397178 C23.1762458,30.8437657 23.6084187,30.7586923 24.0103025,30.5897178 C24.3839281,30.4244125 24.7231514,30.1903484 25.0103025,29.8997178 C25.3038209,29.6106343 25.5441555,29.2721349 25.7203025,28.8997178 C25.8935628,28.5023414 25.9821117,28.0732196 25.9803025,27.6397178 L25.9803025,11.3297178 L32.4903025,11.3297178 L32.5503899,27.6397178 Z" id="Path" fill="#844D99" fill-rule="nonzero"></path>
            <path d="M62.0503025,23.8597178 C62.0727764,25.6915243 61.7329294,27.5097058 61.0503025,29.2097178 C60.4004167,30.8029224 59.4497705,32.2560529 58.2503025,33.4897178 C57.0673985,34.7028485 55.6572579,35.6712583 54.1003025,36.3397178 C50.8451673,37.7264193 47.1654377,37.7264193 43.9103025,36.3397178 C42.3487096,35.6689918 40.9324295,34.7010306 39.7403025,33.4897178 C38.5378374,32.2564496 37.5838373,30.8033818 36.9303025,29.2097178 C36.2476755,27.5097058 35.9078285,25.6915243 35.9303025,23.8597178 C35.9067324,22.0083491 36.2464773,20.1703294 36.9303025,18.4497178 C37.5835955,16.8529613 38.5375483,15.3965707 39.7403025,14.1597178 C40.9323971,12.95341 42.3490111,11.9920149 43.9103025,11.3297178 C45.5158969,10.6474818 47.245923,10.3069255 48.9903025,10.3297178 C50.7427359,10.3246838 52.4790398,10.6644693 54.1003025,11.3297178 C55.6447803,11.9458874 57.046863,12.8715342 58.2203025,14.0497178 C59.4261867,15.2782308 60.3777072,16.7326978 61.0203025,18.3297178 C61.7188478,20.0888593 62.0686728,21.9670458 62.0503025,23.8597178 L62.0503025,23.8597178 Z M55.4703025,23.8597178 C55.4784199,22.8984022 55.3018912,21.9444684 54.9503025,21.0497178 C54.6290352,20.2333908 54.1537325,19.4864866 53.5503025,18.8497178 C52.9663358,18.2449111 52.2654649,17.7651888 51.4903025,17.4397178 C49.885084,16.7996752 48.095521,16.7996752 46.4903025,17.4397178 C45.7123755,17.760094 45.0105204,18.24049 44.4303025,18.8497178 C43.8192254,19.486359 43.3340365,20.2328035 43.0003025,21.0497178 C42.6586035,21.9640359 42.4890818,22.9337004 42.5003025,23.9097178 C42.4924604,24.8496786 42.662096,25.7826748 43.0003025,26.6597178 C43.3190517,27.4727085 43.7871052,28.2188808 44.3803025,28.8597178 C44.9602636,29.486779 45.6609514,29.9901857 46.4403025,30.3397178 C47.2320441,30.6966859 48.0918439,30.8775169 48.9603025,30.8697178 C49.8289585,30.8778604 50.6900476,30.7076847 51.4903025,30.3697178 C52.2654649,30.0442467 52.9663358,29.5645244 53.5503025,28.9597178 C54.1580054,28.3262937 54.6338748,27.5784988 54.9503025,26.7597178 C55.3139245,25.8370119 55.4906767,24.8512781 55.4703025,23.8597178 Z" id="Shape" fill="#844D99" fill-rule="nonzero"></path>
            <path d="M90.4203025,23.8597178 C90.4478535,25.6919598 90.107821,27.5111336 89.4203025,29.2097178 C88.7776786,30.8043469 87.8299569,32.2581996 86.6303025,33.4897178 C85.4419478,34.7009437 84.028947,35.668985 82.4703025,36.3397178 C79.2151673,37.7264193 75.5354377,37.7264193 72.2803025,36.3397178 C69.0991227,34.9775363 66.5837228,32.4154218 65.2803025,29.2097178 C64.592784,27.5111336 64.2527515,25.6919598 64.2803025,23.8597178 C64.2525351,22.0079937 64.5924303,20.1691609 65.2803025,18.4497178 C65.938237,16.8458377 66.9068113,15.3878784 68.1303025,14.1597178 C69.3194489,12.954486 70.732577,11.9931513 72.2903025,11.3297178 C73.899419,10.6475213 75.632695,10.3069955 77.3803025,10.3297178 C79.1294969,10.3246914 80.8625282,10.6645015 82.4803025,11.3297178 C84.0229613,11.9493631 85.4243815,12.8745725 86.6003025,14.0497178 C87.8063438,15.2761113 88.7549449,16.731313 89.3903025,18.3297178 C90.0933263,20.0875633 90.4433175,21.9666425 90.4203025,23.8597178 L90.4203025,23.8597178 Z M83.8403025,23.8597178 C83.8470129,22.8994438 83.6740383,21.9463876 83.3303025,21.0497178 C83.0090352,20.2333908 82.5337325,19.4864866 81.9303025,18.8497178 C81.3445096,18.2424846 80.6398516,17.7625002 79.8603025,17.4397178 C78.255084,16.7996752 76.465521,16.7996752 74.8603025,17.4397178 C74.0837791,17.7626859 73.3824286,18.2427365 72.8003025,18.8497178 C72.2062196,19.4879817 71.7410304,20.2350009 71.4303025,21.0497178 C71.0837847,21.9627197 70.9141022,22.9333036 70.9303025,23.9097178 C70.9175268,24.8500962 71.0873313,25.7840205 71.4303025,26.6597178 C71.7410304,27.4744346 72.2062196,28.2214538 72.8003025,28.8597178 C73.3822398,29.4845386 74.082444,29.9875979 74.8603025,30.3397178 C75.6551113,30.698106 76.5184781,30.8789694 77.3903025,30.8697178 C78.2557293,30.8779135 79.1135634,30.7077083 79.9103025,30.3697178 C80.6898516,30.0469353 81.3945096,29.5669509 81.9803025,28.9597178 C82.5880054,28.3262937 83.0638748,27.5784988 83.3803025,26.7597178 C83.7184757,25.8315688 83.8746555,24.846957 83.8403025,23.8597178 Z" id="Shape" fill="#844D99" fill-rule="nonzero"></path>
            <path d="M118.850302,33.6697178 C118.869103,35.4104975 118.528679,37.1364484 117.850302,38.7397178 C116.504172,41.8725538 113.99461,44.3606047 110.850302,45.6797178 C109.244708,46.3619537 107.514682,46.70251 105.770302,46.6797178 L102.490302,46.6797178 L102.490302,40.1297178 L105.720302,40.1297178 C106.607166,40.1526386 107.491008,40.0171839 108.330302,39.7297178 C109.642022,39.2844335 110.721858,38.3341784 111.330302,37.0897178 C111.630387,36.4923451 111.868303,35.8657218 112.040302,35.2197178 C111.768193,35.644185 111.388706,35.9891731 110.940302,36.2197178 C110.436718,36.4960878 109.903276,36.7141617 109.350302,36.8697178 C108.755562,37.0395417 108.146242,37.1533707 107.530302,37.2097178 C106.945919,37.275369 106.358361,37.308753 105.770302,37.3097178 C104.033554,37.3219145 102.310091,37.0063985 100.690302,36.3797178 C99.1338067,35.7813451 97.7151115,34.8729719 96.5203025,33.7097178 C95.3031197,32.4999027 94.34678,31.0534814 93.7103025,29.4597178 C93.012004,27.6525686 92.6723478,25.7267175 92.7103025,23.7897178 C92.6865006,21.9480644 93.0263242,20.1198134 93.7103025,18.4097178 C94.3635479,16.8070016 95.3173556,15.3440439 96.5203025,14.0997178 C97.7101641,12.8882158 99.1271766,11.9231522 100.690302,11.2597178 C102.295897,10.5774818 104.025923,10.2369255 105.770302,10.2597178 C106.600147,10.2580499 107.426816,10.3622236 108.230302,10.5697178 C109.048771,10.7708496 109.843312,11.0591643 110.600302,11.4297178 C111.365484,11.7969841 112.098114,12.2285329 112.790302,12.7197178 C113.476798,13.2069518 114.128387,13.7415887 114.740302,14.3197178 L117.280302,11.3197178 L118.860302,11.3197178 L118.850302,33.6697178 Z M112.27041,23.8597178 C112.272734,22.9702168 112.09588,22.0893483 111.750302,21.2697178 C111.419736,20.4491594 110.945667,19.6940348 110.350302,19.0397178 C109.763824,18.401839 109.065683,17.8765391 108.290302,17.4897178 C107.50412,17.0995526 106.637974,16.8975658 105.760302,16.8997178 C104.898809,16.892745 104.043773,17.0488229 103.240302,17.3597178 C102.464846,17.6474895 101.76174,18.1014365 101.180302,18.6897178 C100.575936,19.318101 100.106332,20.0633416 99.8003025,20.8797178 C99.4522636,21.8409064 99.2828134,22.8576078 99.3003025,23.8797178 C99.2874491,24.8656322 99.456964,25.8454282 99.8003025,26.7697178 C100.116057,27.5812327 100.584518,28.3246603 101.180302,28.9597178 C101.762441,29.5617348 102.464157,30.0352226 103.240302,30.3497178 C104.039141,30.6797339 104.896005,30.8463465 105.760302,30.8397178 C106.637179,30.8449785 107.503284,30.6464246 108.290302,30.2597178 C109.067829,29.8720622 109.766396,29.3430505 110.350302,28.6997178 C110.947609,28.0506444 111.421983,27.2984225 111.750302,26.4797178 C112.098521,25.6503801 112.275401,24.7591794 112.27041,23.8597178 L112.27041,23.8597178 Z" id="Shape" fill="#844D99" fill-rule="nonzero"></path>
            <polygon id="Path" fill="#844D99" fill-rule="nonzero" points="130.400302 36.8997178 123.820302 36.8997178 123.820302 11.2797178 130.400302 11.2797178"></polygon>
            <path d="M145.570302,30.6297178 C145.820187,30.7116462 146.078465,30.7653144 146.340302,30.7897178 C146.590302,30.7897178 146.850302,30.7897178 147.100302,30.7897178 C148.978259,30.8051997 150.76883,29.9976155 152.000302,28.5797178 C152.4105,28.1095068 152.747607,27.5802482 153.000302,27.0097178 L157.790302,31.8197178 C157.187119,32.6754655 156.481924,33.4545383 155.690302,34.1397178 C151.919928,37.3974311 146.635554,38.2523701 142.030302,36.3497178 C140.472839,35.6993254 139.059133,34.7477925 137.870302,33.5497178 C136.661516,32.3253736 135.706561,30.87425 135.060302,29.2797178 C134.367203,27.5478168 134.027212,25.6948645 134.060302,23.8297178 C134.026422,21.932038 134.366207,20.0462308 135.060302,18.2797178 C135.699431,16.6956395 136.651789,15.2568984 137.860302,14.0497178 C139.048709,12.8635844 140.463388,11.9283998 142.020302,11.2997178 C143.630246,10.631745 145.357304,10.2917728 147.100302,10.2995771 C148.158733,10.2947306 149.213617,10.4223917 150.240302,10.6797178 C151.251038,10.9279316 152.228108,11.2972709 153.150302,11.7797178 C154.072853,12.2638549 154.935416,12.8545595 155.720302,13.5397178 C156.514989,14.2255062 157.220498,15.0082853 157.820302,15.8697178 L145.570302,30.6297178 Z M148.920302,17.1597178 C148.63346,17.053186 148.334511,16.9826475 148.030302,16.9497178 C147.730302,16.9497178 147.420302,16.9497178 147.100302,16.9497178 C146.236005,16.943089 145.379141,17.1097016 144.580302,17.4397178 C143.803268,17.7571546 143.101483,18.2340959 142.520302,18.8397178 C141.922569,19.4561553 141.450466,20.1829895 141.130302,20.9797178 C140.777864,21.8983177 140.604741,22.8759511 140.620302,23.8597178 C140.620302,24.0997178 140.620302,24.3697178 140.620302,24.6797178 C140.641227,24.9885721 140.681304,25.2958297 140.740302,25.5997178 C140.800302,25.9097178 140.860302,26.2097178 140.940302,26.4897178 C141.013937,26.7573653 141.117947,27.0157113 141.250302,27.2597178 L148.920302,17.1597178 Z" id="Shape" fill="#844D99" fill-rule="nonzero"></path>
            <path d="M131.530302,4.30971775 C131.534163,4.89466066 131.414913,5.47387184 131.180302,6.00971775 C130.957062,6.52502537 130.63809,6.99330434 130.240302,7.38971775 C129.834282,7.78253369 129.359799,8.09772595 128.840302,8.31971775 C127.744511,8.78600809 126.506094,8.78600809 125.410302,8.31971775 C124.895568,8.09988957 124.42727,7.78429719 124.030302,7.38971775 C123.653992,6.99932676 123.349343,6.54573825 123.130302,6.04971775 C122.676953,4.96865599 122.676953,3.75077951 123.130302,2.66971775 C123.354545,2.15200164 123.673322,1.6806184 124.070302,1.27971775 C124.46727,0.88513831 124.935568,0.56954593 125.450302,0.349717752 C126.546094,-0.116572584 127.784511,-0.116572584 128.880302,0.349717752 C129.399799,0.571709553 129.874282,0.886901815 130.280302,1.27971775 C130.680485,1.67797871 130.999702,2.15001255 131.220302,2.66971775 C131.432048,3.19021792 131.537453,3.74784088 131.530302,4.30971775 L131.530302,4.30971775 Z" id="Path" fill="#43B366"></path>
        </g>
    </g>
</svg>