<?xml version="1.0" standalone="no"?>
<!DOCTYPE svg PUBLIC "-//W3C//DTD SVG 20010904//EN"
 "http://www.w3.org/TR/2001/REC-SVG-20010904/DTD/svg10.dtd">
<svg version="1.0" xmlns="http://www.w3.org/2000/svg"
 width="512.000000pt" height="512.000000pt" viewBox="0 0 512.000000 512.000000"
 preserveAspectRatio="xMidYMid meet">

<g transform="translate(0.000000,512.000000) scale(0.100000,-0.100000)"
fill="#000000" stroke="none">
<path d="M1335 4470 c-271 -31 -518 -143 -706 -319 -360 -337 -492 -824 -354
-1306 35 -122 130 -312 209 -415 66 -86 2061 -2205 2076 -2205 7 0 1804 1899
1993 2106 320 350 427 841 282 1285 -125 381 -413 670 -795 798 -355 119 -760
77 -1074 -111 -106 -63 -188 -131 -298 -246 l-106 -111 -134 135 c-176 178
-304 261 -506 329 -166 55 -408 80 -587 60z"/>
</g>
</svg>
