<?xml version="1.0" encoding="utf-8"?>
<!-- Generator: Adobe Illustrator 21.0.2, SVG Export Plug-In . SVG Version: 6.00 Build 0)  -->
<svg version="1.1" id="Layer_1" xmlns="http://www.w3.org/2000/svg" xmlns:xlink="http://www.w3.org/1999/xlink" x="0px" y="0px"
	 viewBox="0 0 45 45" style="enable-background:new 0 0 45 45;" xml:space="preserve">
<style type="text/css">
	.st0{fill:#111B82;}
	.st1{clip-path:url(#SVGID_2_);fill:#1476EB;}
	.st2{clip-path:url(#SVGID_2_);fill:#111B82;}
</style>
<g>
	<rect x="33.8" y="5" transform="matrix(0.7069 -0.7073 0.7073 0.7069 5.5225 26.3473)" class="st0" width="1.5" height="3"/>
	<rect x="40" y="11.2" transform="matrix(0.7071 -0.7071 0.7071 0.7071 2.9533 32.5245)" class="st0" width="1.5" height="3"/>
	<rect x="38.9" y="5.8" transform="matrix(0.7069 -0.7073 0.7073 0.7069 7.2532 30.5373)" class="st0" width="3" height="1.5"/>
	<g>
		<defs>
			<rect id="SVGID_1_" x="2.6" y="4.9" width="39.7" height="33.1"/>
		</defs>
		<clipPath id="SVGID_2_">
			<use xlink:href="#SVGID_1_"  style="overflow:visible;"/>
		</clipPath>
		<path class="st1" d="M22.8,25.2H11.4c-0.8,0-1.5-0.7-1.5-1.5v-6.8c0-0.8,0.7-1.5,1.5-1.5h11.4c0.8,0,1.5,0.7,1.5,1.5v6.8
			C24.3,24.5,23.7,25.2,22.8,25.2"/>
		<path class="st2" d="M17.1,34c-8,0-14.5-6.5-14.5-14.5C2.6,11.5,9.1,5,17.1,5c8,0,14.5,6.5,14.5,14.5C31.6,27.5,25.1,34,17.1,34
			 M17.1,7.3c-6.7,0-12.2,5.5-12.2,12.2s5.5,12.2,12.2,12.2s12.2-5.5,12.2-12.2S23.8,7.3,17.1,7.3"/>
		<polygon class="st2" points="25.2,29.2 26.8,27.6 35.4,36.4 33.7,38 		"/>
		<path class="st2" d="M22.8,26.3H11.4c-1.5,0-2.7-1.2-2.7-2.7v-6.8c0-1.5,1.2-2.7,2.7-2.7h11.4c1.5,0,2.7,1.2,2.7,2.7v6.8
			C25.5,25.2,24.3,26.3,22.8,26.3 M11.4,16.5c-0.2,0-0.4,0.2-0.4,0.4v6.8c0,0.2,0.2,0.4,0.4,0.4h11.4c0.2,0,0.4-0.2,0.4-0.4v-6.8
			c0-0.2-0.2-0.4-0.4-0.4H11.4z"/>
		<path class="st2" d="M20.9,15.3h-2.3V13c0-0.2-0.2-0.4-0.4-0.4H16c-0.2,0-0.4,0.2-0.4,0.4v2.3h-2.3V13c0-1.5,1.2-2.7,2.7-2.7h2.3
			c1.5,0,2.7,1.2,2.7,2.7V15.3z"/>
	</g>
</g>
</svg>
